<?xml version="1.0" encoding="UTF-8" standalone="no"?>
<!-- Created with Inkscape (http://www.inkscape.org/) -->

<svg
   width="64mm"
   height="64mm"
   viewBox="0 0 64 64"
   version="1.1"
   id="svg786"
   inkscape:version="1.3.2 (091e20e, 2023-11-25)"
   sodipodi:docname="icon-test.svg"
   xmlns:inkscape="http://www.inkscape.org/namespaces/inkscape"
   xmlns:sodipodi="http://sodipodi.sourceforge.net/DTD/sodipodi-0.dtd"
   xmlns="http://www.w3.org/2000/svg"
   xmlns:svg="http://www.w3.org/2000/svg">
  <sodipodi:namedview
     id="namedview788"
     pagecolor="#ffffff"
     bordercolor="#666666"
     borderopacity="1.0"
     inkscape:pageshadow="2"
     inkscape:pageopacity="0.0"
     inkscape:pagecheckerboard="0"
     inkscape:document-units="mm"
     showgrid="false"
     inkscape:zoom="1.1042739"
     inkscape:cx="71.993008"
     inkscape:cy="37.581256"
     inkscape:window-width="1368"
     inkscape:window-height="694"
     inkscape:window-x="0"
     inkscape:window-y="38"
     inkscape:window-maximized="0"
     inkscape:current-layer="layer1"
     width="64mm"
     inkscape:showpageshadow="2"
     inkscape:deskcolor="#d1d1d1">
    <inkscape:grid
       type="xygrid"
       id="grid790"
       originx="0"
       originy="0"
       spacingy="1"
       spacingx="1"
       units="mm"
       visible="false" />
  </sodipodi:namedview>
  <defs
     id="defs783" />
  <g
     inkscape:label="Layer 1"
     inkscape:groupmode="layer"
     id="layer1">
    <circle
       style="fill:#58e67e;fill-opacity:1;fill-rule:evenodd;stroke-width:0.201219"
       id="path2095"
       cx="32"
       cy="32"
       r="28" />
    <g
       style="enable-background:new"
       transform="matrix(2.3333333,0,0,2.2857143,13.33331,12.714285)"
       id="g693">
      <g
         transform="translate(-347,251)"
         id="g691">
        <path
           style="opacity:0.5"
           d="m 355,-250 c -2.4,0 -4.408,1.1693 -4.2857,4.0833 v 2.0417 h -0.71429 c -0.554,0 -1,0.4085 -1,0.9625 V -237 c 0,0.554 0.446,1 1,1 h 10 c 0.554,0 1,-0.446 1,-1 v -5.9125 c 0,-0.554 -0.43805,-0.9625 -1,-0.9625 h -0.71429 v -2.0417 c 0,-2.91 -1.89,-4.08 -4.29,-4.08 z m 0,1.75 c 1.2,0 2.5714,0.42065 2.5714,2.3333 v 2.0417 h -5.1429 v -2.0417 c 0,-1.8938 1.3714,-2.3333 2.5714,-2.3333 z"
           id="path689" />
      </g>
    </g>
  </g>
</svg>
