<?xml version="1.0" encoding="UTF-8" standalone="no"?>
<!-- Created with Inkscape (http://www.inkscape.org/) -->

<svg
   width="64mm"
   height="64mm"
   viewBox="0 0 64 64"
   version="1.1"
   id="svg2567"
   inkscape:version="1.1.2 (0a00cf5339, 2022-02-04, custom)"
   sodipodi:docname="ic_background.svg"
   xmlns:inkscape="http://www.inkscape.org/namespaces/inkscape"
   xmlns:sodipodi="http://sodipodi.sourceforge.net/DTD/sodipodi-0.dtd"
   xmlns="http://www.w3.org/2000/svg"
   xmlns:svg="http://www.w3.org/2000/svg">
  <sodipodi:namedview
     id="namedview2569"
     pagecolor="#ffffff"
     bordercolor="#666666"
     borderopacity="1.0"
     inkscape:pageshadow="2"
     inkscape:pageopacity="0.0"
     inkscape:pagecheckerboard="0"
     inkscape:document-units="mm"
     showgrid="false"
     width="64mm"
     inkscape:zoom="0.64052329"
     inkscape:cx="-68.693833"
     inkscape:cy="560.47923"
     inkscape:window-width="1920"
     inkscape:window-height="1148"
     inkscape:window-x="0"
     inkscape:window-y="52"
     inkscape:window-maximized="1"
     inkscape:current-layer="layer1" />
  <defs
     id="defs2564" />
  <g
     inkscape:label="Layer 1"
     inkscape:groupmode="layer"
     id="layer1">
    <g
       style="enable-background:new"
       transform="matrix(2.3333333,0,0,2.2857143,13.33331,12.914286)"
       id="g693">
      <g
         transform="translate(-347,251)"
         id="g691">
        <path
           style="opacity:0.5"
           d="m 355,-250 c -2.4,0 -4.408,1.1693 -4.2857,4.0833 v 2.0417 h -0.71429 c -0.554,0 -1,0.4085 -1,0.9625 V -237 c 0,0.554 0.446,1 1,1 h 10 c 0.554,0 1,-0.446 1,-1 v -5.9125 c 0,-0.554 -0.43805,-0.9625 -1,-0.9625 h -0.71429 v -2.0417 c 0,-2.91 -1.89,-4.08 -4.29,-4.08 z m 0,1.75 c 1.2,0 2.5714,0.42065 2.5714,2.3333 v 2.0417 h -5.1429 v -2.0417 c 0,-1.8938 1.3714,-2.3333 2.5714,-2.3333 z"
           id="path689" />
      </g>
    </g>
  </g>
</svg>
